<mxfile host="app.diagrams.net" modified="2024-05-27T23:44:36.033Z" agent="Mozilla/5.0 (Windows NT 10.0; Win64; x64) AppleWebKit/537.36 (KHTML, like Gecko) Chrome/125.0.0.0 Safari/537.36" etag="1DKpyg-uihNk4jFdw8Sg" version="24.4.9" type="github">
  <diagram name="Sayfa -1" id="_w6NCnIKhzFKye_CMH-P">
    <mxGraphModel dx="1195" dy="650" grid="1" gridSize="10" guides="1" tooltips="1" connect="1" arrows="1" fold="1" page="1" pageScale="1" pageWidth="827" pageHeight="1169" math="0" shadow="0">
      <root>
        <mxCell id="0" />
        <mxCell id="1" parent="0" />
        <mxCell id="hQm0AAL2bkkplL0ZvKbk-7" value="" style="endArrow=none;html=1;rounded=0;exitX=0.5;exitY=0;exitDx=0;exitDy=0;entryX=0.5;entryY=1;entryDx=0;entryDy=0;" edge="1" parent="1" source="hQm0AAL2bkkplL0ZvKbk-10">
          <mxGeometry width="50" height="50" relative="1" as="geometry">
            <mxPoint x="450" y="490" as="sourcePoint" />
            <mxPoint x="660" y="410" as="targetPoint" />
          </mxGeometry>
        </mxCell>
        <mxCell id="hQm0AAL2bkkplL0ZvKbk-8" value="" style="endArrow=none;html=1;rounded=0;exitX=0.5;exitY=0;exitDx=0;exitDy=0;entryX=0.5;entryY=1;entryDx=0;entryDy=0;" edge="1" parent="1" source="hQm0AAL2bkkplL0ZvKbk-9">
          <mxGeometry width="50" height="50" relative="1" as="geometry">
            <mxPoint x="450" y="490" as="sourcePoint" />
            <mxPoint x="200" y="410" as="targetPoint" />
          </mxGeometry>
        </mxCell>
        <mxCell id="hQm0AAL2bkkplL0ZvKbk-11" value="" style="endArrow=none;html=1;rounded=0;exitX=1;exitY=0.5;exitDx=0;exitDy=0;entryX=0;entryY=0.5;entryDx=0;entryDy=0;" edge="1" parent="1" target="hQm0AAL2bkkplL0ZvKbk-10">
          <mxGeometry width="50" height="50" relative="1" as="geometry">
            <mxPoint x="474.0000000000002" y="560" as="sourcePoint" />
            <mxPoint x="628" y="428" as="targetPoint" />
          </mxGeometry>
        </mxCell>
        <mxCell id="hQm0AAL2bkkplL0ZvKbk-10" value="teaches" style="rhombus;whiteSpace=wrap;html=1;" vertex="1" parent="1">
          <mxGeometry x="620" y="520" width="80" height="80" as="geometry" />
        </mxCell>
        <mxCell id="hQm0AAL2bkkplL0ZvKbk-12" value="" style="endArrow=none;html=1;rounded=0;exitX=0;exitY=0.5;exitDx=0;exitDy=0;entryX=1;entryY=0.5;entryDx=0;entryDy=0;" edge="1" parent="1" source="hQm0AAL2bkkplL0ZvKbk-24" target="hQm0AAL2bkkplL0ZvKbk-9">
          <mxGeometry width="50" height="50" relative="1" as="geometry">
            <mxPoint x="354.0000000000002" y="560" as="sourcePoint" />
            <mxPoint x="182" y="428" as="targetPoint" />
          </mxGeometry>
        </mxCell>
        <mxCell id="hQm0AAL2bkkplL0ZvKbk-9" value="attends" style="rhombus;whiteSpace=wrap;html=1;" vertex="1" parent="1">
          <mxGeometry x="160" y="520" width="80" height="80" as="geometry" />
        </mxCell>
        <mxCell id="hQm0AAL2bkkplL0ZvKbk-14" value="M" style="text;html=1;align=center;verticalAlign=middle;resizable=0;points=[];autosize=1;strokeColor=none;fillColor=none;" vertex="1" parent="1">
          <mxGeometry x="200" y="410" width="30" height="30" as="geometry" />
        </mxCell>
        <mxCell id="hQm0AAL2bkkplL0ZvKbk-15" value="N" style="text;html=1;align=center;verticalAlign=middle;resizable=0;points=[];autosize=1;strokeColor=none;fillColor=none;" vertex="1" parent="1">
          <mxGeometry x="330" y="530" width="30" height="30" as="geometry" />
        </mxCell>
        <mxCell id="hQm0AAL2bkkplL0ZvKbk-16" value="M" style="text;html=1;align=center;verticalAlign=middle;resizable=0;points=[];autosize=1;strokeColor=none;fillColor=none;" vertex="1" parent="1">
          <mxGeometry x="480" y="530" width="30" height="30" as="geometry" />
        </mxCell>
        <mxCell id="hQm0AAL2bkkplL0ZvKbk-17" value="1" style="text;html=1;align=center;verticalAlign=middle;resizable=0;points=[];autosize=1;strokeColor=none;fillColor=none;" vertex="1" parent="1">
          <mxGeometry x="660" y="410" width="30" height="30" as="geometry" />
        </mxCell>
        <mxCell id="hQm0AAL2bkkplL0ZvKbk-20" value="" style="ellipse;whiteSpace=wrap;html=1;" vertex="1" parent="1">
          <mxGeometry x="610" y="100" width="80" height="50" as="geometry" />
        </mxCell>
        <mxCell id="hQm0AAL2bkkplL0ZvKbk-22" value="counselor" style="ellipse;whiteSpace=wrap;html=1;" vertex="1" parent="1">
          <mxGeometry x="615" y="107.5" width="70" height="35" as="geometry" />
        </mxCell>
        <mxCell id="hQm0AAL2bkkplL0ZvKbk-23" value="student" style="rounded=0;whiteSpace=wrap;html=1;" vertex="1" parent="1">
          <mxGeometry x="140" y="350" width="120" height="60" as="geometry" />
        </mxCell>
        <mxCell id="hQm0AAL2bkkplL0ZvKbk-24" value="course" style="rounded=0;whiteSpace=wrap;html=1;" vertex="1" parent="1">
          <mxGeometry x="360" y="530" width="120" height="60" as="geometry" />
        </mxCell>
        <mxCell id="hQm0AAL2bkkplL0ZvKbk-25" value="lecturer" style="rounded=0;whiteSpace=wrap;html=1;" vertex="1" parent="1">
          <mxGeometry x="600" y="350" width="120" height="60" as="geometry" />
        </mxCell>
        <mxCell id="hQm0AAL2bkkplL0ZvKbk-26" value="result" style="ellipse;whiteSpace=wrap;html=1;" vertex="1" parent="1">
          <mxGeometry x="100" y="590" width="60" height="40" as="geometry" />
        </mxCell>
        <mxCell id="hQm0AAL2bkkplL0ZvKbk-29" value="" style="endArrow=none;html=1;rounded=0;entryX=0;entryY=0.5;entryDx=0;entryDy=0;" edge="1" parent="1" target="hQm0AAL2bkkplL0ZvKbk-9">
          <mxGeometry width="50" height="50" relative="1" as="geometry">
            <mxPoint x="130" y="590" as="sourcePoint" />
            <mxPoint x="130" y="560" as="targetPoint" />
            <Array as="points" />
          </mxGeometry>
        </mxCell>
        <mxCell id="hQm0AAL2bkkplL0ZvKbk-30" value="&lt;u&gt;student_id&lt;/u&gt;" style="ellipse;whiteSpace=wrap;html=1;" vertex="1" parent="1">
          <mxGeometry x="40" y="380" width="70" height="40" as="geometry" />
        </mxCell>
        <mxCell id="hQm0AAL2bkkplL0ZvKbk-33" value="name" style="ellipse;whiteSpace=wrap;html=1;" vertex="1" parent="1">
          <mxGeometry x="40" y="330" width="70" height="40" as="geometry" />
        </mxCell>
        <mxCell id="hQm0AAL2bkkplL0ZvKbk-34" value="year" style="ellipse;whiteSpace=wrap;html=1;" vertex="1" parent="1">
          <mxGeometry x="100" y="280" width="70" height="40" as="geometry" />
        </mxCell>
        <mxCell id="hQm0AAL2bkkplL0ZvKbk-35" value="email" style="ellipse;whiteSpace=wrap;html=1;" vertex="1" parent="1">
          <mxGeometry x="180" y="280" width="70" height="40" as="geometry" />
        </mxCell>
        <mxCell id="hQm0AAL2bkkplL0ZvKbk-36" value="age" style="ellipse;whiteSpace=wrap;html=1;" vertex="1" parent="1">
          <mxGeometry x="260" y="280" width="70" height="40" as="geometry" />
        </mxCell>
        <mxCell id="hQm0AAL2bkkplL0ZvKbk-37" value="&lt;u&gt;lecturer_id&lt;/u&gt;" style="ellipse;whiteSpace=wrap;html=1;" vertex="1" parent="1">
          <mxGeometry x="590" y="280" width="70" height="40" as="geometry" />
        </mxCell>
        <mxCell id="hQm0AAL2bkkplL0ZvKbk-38" value="name" style="ellipse;whiteSpace=wrap;html=1;" vertex="1" parent="1">
          <mxGeometry x="670" y="280" width="70" height="40" as="geometry" />
        </mxCell>
        <mxCell id="hQm0AAL2bkkplL0ZvKbk-39" value="email" style="ellipse;whiteSpace=wrap;html=1;" vertex="1" parent="1">
          <mxGeometry x="740" y="340" width="70" height="40" as="geometry" />
        </mxCell>
        <mxCell id="hQm0AAL2bkkplL0ZvKbk-40" value="department" style="ellipse;whiteSpace=wrap;html=1;" vertex="1" parent="1">
          <mxGeometry x="740" y="390" width="70" height="40" as="geometry" />
        </mxCell>
        <mxCell id="hQm0AAL2bkkplL0ZvKbk-41" value="&lt;u&gt;course_id&lt;/u&gt;" style="ellipse;whiteSpace=wrap;html=1;" vertex="1" parent="1">
          <mxGeometry x="330" y="460" width="70" height="40" as="geometry" />
        </mxCell>
        <mxCell id="hQm0AAL2bkkplL0ZvKbk-42" value="courseName" style="ellipse;whiteSpace=wrap;html=1;" vertex="1" parent="1">
          <mxGeometry x="330" y="620" width="70" height="40" as="geometry" />
        </mxCell>
        <mxCell id="hQm0AAL2bkkplL0ZvKbk-43" value="department" style="ellipse;whiteSpace=wrap;html=1;" vertex="1" parent="1">
          <mxGeometry x="440" y="620" width="70" height="40" as="geometry" />
        </mxCell>
        <mxCell id="hQm0AAL2bkkplL0ZvKbk-44" value="courseCode" style="ellipse;whiteSpace=wrap;html=1;" vertex="1" parent="1">
          <mxGeometry x="440" y="460" width="70" height="40" as="geometry" />
        </mxCell>
        <mxCell id="hQm0AAL2bkkplL0ZvKbk-46" style="edgeStyle=orthogonalEdgeStyle;rounded=0;orthogonalLoop=1;jettySize=auto;html=1;exitX=0.5;exitY=1;exitDx=0;exitDy=0;" edge="1" parent="1" source="hQm0AAL2bkkplL0ZvKbk-44" target="hQm0AAL2bkkplL0ZvKbk-44">
          <mxGeometry relative="1" as="geometry" />
        </mxCell>
        <mxCell id="hQm0AAL2bkkplL0ZvKbk-48" value="" style="endArrow=none;html=1;rounded=0;entryX=0.5;entryY=1;entryDx=0;entryDy=0;exitX=0.5;exitY=0;exitDx=0;exitDy=0;" edge="1" parent="1" source="hQm0AAL2bkkplL0ZvKbk-24" target="hQm0AAL2bkkplL0ZvKbk-44">
          <mxGeometry width="50" height="50" relative="1" as="geometry">
            <mxPoint x="420" y="580" as="sourcePoint" />
            <mxPoint x="470" y="530" as="targetPoint" />
          </mxGeometry>
        </mxCell>
        <mxCell id="hQm0AAL2bkkplL0ZvKbk-49" value="" style="endArrow=none;html=1;rounded=0;entryX=0.5;entryY=1;entryDx=0;entryDy=0;" edge="1" parent="1" target="hQm0AAL2bkkplL0ZvKbk-41">
          <mxGeometry width="50" height="50" relative="1" as="geometry">
            <mxPoint x="420" y="530" as="sourcePoint" />
            <mxPoint x="485" y="510" as="targetPoint" />
          </mxGeometry>
        </mxCell>
        <mxCell id="hQm0AAL2bkkplL0ZvKbk-50" value="" style="endArrow=none;html=1;rounded=0;entryX=0.5;entryY=1;entryDx=0;entryDy=0;exitX=0.5;exitY=0;exitDx=0;exitDy=0;" edge="1" parent="1" source="hQm0AAL2bkkplL0ZvKbk-42" target="hQm0AAL2bkkplL0ZvKbk-24">
          <mxGeometry width="50" height="50" relative="1" as="geometry">
            <mxPoint x="440" y="550" as="sourcePoint" />
            <mxPoint x="495" y="520" as="targetPoint" />
          </mxGeometry>
        </mxCell>
        <mxCell id="hQm0AAL2bkkplL0ZvKbk-52" value="" style="endArrow=none;html=1;rounded=0;entryX=0.5;entryY=1;entryDx=0;entryDy=0;exitX=0.5;exitY=0;exitDx=0;exitDy=0;" edge="1" parent="1" source="hQm0AAL2bkkplL0ZvKbk-43" target="hQm0AAL2bkkplL0ZvKbk-24">
          <mxGeometry width="50" height="50" relative="1" as="geometry">
            <mxPoint x="375" y="630" as="sourcePoint" />
            <mxPoint x="430" y="600" as="targetPoint" />
          </mxGeometry>
        </mxCell>
        <mxCell id="hQm0AAL2bkkplL0ZvKbk-53" value="" style="endArrow=none;html=1;rounded=0;entryX=1;entryY=0.5;entryDx=0;entryDy=0;exitX=0;exitY=0.5;exitDx=0;exitDy=0;" edge="1" parent="1" source="hQm0AAL2bkkplL0ZvKbk-23" target="hQm0AAL2bkkplL0ZvKbk-30">
          <mxGeometry width="50" height="50" relative="1" as="geometry">
            <mxPoint x="420" y="580" as="sourcePoint" />
            <mxPoint x="470" y="530" as="targetPoint" />
          </mxGeometry>
        </mxCell>
        <mxCell id="hQm0AAL2bkkplL0ZvKbk-54" value="" style="endArrow=none;html=1;rounded=0;entryX=1;entryY=0.5;entryDx=0;entryDy=0;exitX=0;exitY=0.5;exitDx=0;exitDy=0;" edge="1" parent="1" source="hQm0AAL2bkkplL0ZvKbk-23" target="hQm0AAL2bkkplL0ZvKbk-33">
          <mxGeometry width="50" height="50" relative="1" as="geometry">
            <mxPoint x="150" y="390" as="sourcePoint" />
            <mxPoint x="120" y="410" as="targetPoint" />
          </mxGeometry>
        </mxCell>
        <mxCell id="hQm0AAL2bkkplL0ZvKbk-55" value="" style="endArrow=none;html=1;rounded=0;entryX=0.5;entryY=1;entryDx=0;entryDy=0;exitX=0.5;exitY=0;exitDx=0;exitDy=0;" edge="1" parent="1" source="hQm0AAL2bkkplL0ZvKbk-23" target="hQm0AAL2bkkplL0ZvKbk-34">
          <mxGeometry width="50" height="50" relative="1" as="geometry">
            <mxPoint x="150" y="390" as="sourcePoint" />
            <mxPoint x="120" y="360" as="targetPoint" />
          </mxGeometry>
        </mxCell>
        <mxCell id="hQm0AAL2bkkplL0ZvKbk-56" value="" style="endArrow=none;html=1;rounded=0;entryX=0.5;entryY=1;entryDx=0;entryDy=0;exitX=0.5;exitY=0;exitDx=0;exitDy=0;" edge="1" parent="1" source="hQm0AAL2bkkplL0ZvKbk-23" target="hQm0AAL2bkkplL0ZvKbk-35">
          <mxGeometry width="50" height="50" relative="1" as="geometry">
            <mxPoint x="210" y="360" as="sourcePoint" />
            <mxPoint x="145" y="330" as="targetPoint" />
          </mxGeometry>
        </mxCell>
        <mxCell id="hQm0AAL2bkkplL0ZvKbk-57" value="" style="endArrow=none;html=1;rounded=0;entryX=0.5;entryY=1;entryDx=0;entryDy=0;exitX=0.5;exitY=0;exitDx=0;exitDy=0;" edge="1" parent="1" source="hQm0AAL2bkkplL0ZvKbk-23" target="hQm0AAL2bkkplL0ZvKbk-36">
          <mxGeometry width="50" height="50" relative="1" as="geometry">
            <mxPoint x="210" y="360" as="sourcePoint" />
            <mxPoint x="225" y="330" as="targetPoint" />
          </mxGeometry>
        </mxCell>
        <mxCell id="hQm0AAL2bkkplL0ZvKbk-58" value="" style="endArrow=none;html=1;rounded=0;entryX=0.5;entryY=1;entryDx=0;entryDy=0;exitX=0.5;exitY=0;exitDx=0;exitDy=0;" edge="1" parent="1" source="hQm0AAL2bkkplL0ZvKbk-25" target="hQm0AAL2bkkplL0ZvKbk-37">
          <mxGeometry width="50" height="50" relative="1" as="geometry">
            <mxPoint x="490" y="570" as="sourcePoint" />
            <mxPoint x="540" y="520" as="targetPoint" />
          </mxGeometry>
        </mxCell>
        <mxCell id="hQm0AAL2bkkplL0ZvKbk-59" value="" style="endArrow=none;html=1;rounded=0;entryX=0.5;entryY=1;entryDx=0;entryDy=0;exitX=0.5;exitY=0;exitDx=0;exitDy=0;" edge="1" parent="1" source="hQm0AAL2bkkplL0ZvKbk-25" target="hQm0AAL2bkkplL0ZvKbk-38">
          <mxGeometry width="50" height="50" relative="1" as="geometry">
            <mxPoint x="670" y="360" as="sourcePoint" />
            <mxPoint x="635" y="330" as="targetPoint" />
          </mxGeometry>
        </mxCell>
        <mxCell id="hQm0AAL2bkkplL0ZvKbk-60" value="" style="endArrow=none;html=1;rounded=0;entryX=-0.012;entryY=0.667;entryDx=0;entryDy=0;exitX=1;exitY=0.5;exitDx=0;exitDy=0;entryPerimeter=0;" edge="1" parent="1" source="hQm0AAL2bkkplL0ZvKbk-25" target="hQm0AAL2bkkplL0ZvKbk-39">
          <mxGeometry width="50" height="50" relative="1" as="geometry">
            <mxPoint x="670" y="360" as="sourcePoint" />
            <mxPoint x="715" y="330" as="targetPoint" />
          </mxGeometry>
        </mxCell>
        <mxCell id="hQm0AAL2bkkplL0ZvKbk-61" value="" style="endArrow=none;html=1;rounded=0;entryX=0;entryY=0.5;entryDx=0;entryDy=0;exitX=1;exitY=0.5;exitDx=0;exitDy=0;" edge="1" parent="1" source="hQm0AAL2bkkplL0ZvKbk-25" target="hQm0AAL2bkkplL0ZvKbk-40">
          <mxGeometry width="50" height="50" relative="1" as="geometry">
            <mxPoint x="730" y="390" as="sourcePoint" />
            <mxPoint x="750" y="370" as="targetPoint" />
          </mxGeometry>
        </mxCell>
      </root>
    </mxGraphModel>
  </diagram>
</mxfile>
